<?xml version="1.0" encoding="utf-8"?>
<svg version="1.1" id="Layer_1" xmlns="http://www.w3.org/2000/svg" xmlns:xlink="http://www.w3.org/1999/xlink" x="0px" y="0px"
	 viewBox="0 0 264 66" style="enable-background:new 0 0 264 66;" xml:space="preserve">

<path d="M0,63.9835h12.865v-26.2h25.407v-10.518H12.865v-15.401h28.241V1.3465H0V63.9835z M140.7742,1.3478h-16.058l-21.599,62.636
	h13.616l3.757-10.799h24.041l3.568,10.799h14.087L140.7742,1.3478z M123.7772,42.6658l8.733-25.9189l8.64,25.9189H123.7772z
	 M77.894,13.155c5.653,0,10.749,2.3669,14.364,6.16l9.251-9.356C95.516,3.818,87.153,0,77.894,0
	C59.669,0,44.895,14.774,44.895,32.999c0,18.225,14.774,32.999,32.999,32.999c9.162,0,17.45-3.736,23.429-9.765l-8.751-9.879
	c-3.63,3.986-8.862,6.489-14.678,6.489c-10.959,0-19.844-8.885-19.844-19.844C58.05,22.039,66.935,13.155,77.894,13.155z"/>
<path style="fill:#F16522;" d="M174.438,16.5213h3.103v-6.319h5.3V7.6663h-5.3v-3.715h5.3v-2.536h-8.403V16.5213z M188.1414,6.1714
	c-0.431,0.318-0.635,0.635-0.929,1.405v-1.54h-2.876v10.485h2.876v-5.05c0-0.9969,0.091-1.45,0.43-1.925
	c0.408-0.589,1.133-0.951,1.926-0.951c0.158,0,0.385,0.023,0.611,0.045v-2.944c-0.159-0.023-0.271-0.023-0.34-0.023
	C189.2054,5.6734,188.5944,5.8534,188.1414,6.1714z M199.4204,7.3724c-1.02-1.201-1.993-1.699-3.42-1.699
	c-3.059,0-5.277,2.424-5.277,5.73c0,3.194,2.106,5.481,5.051,5.481c1.54,0,2.671-0.566,3.646-1.812v1.449h2.876V6.0364h-2.876
	V7.3724z M196.5664,14.5744c-1.562,0-2.763-1.383-2.763-3.217c0-1.925,1.155-3.26,2.786-3.26c1.699,0,2.877,1.314,2.877,3.169
	C199.4664,13.0804,198.1744,14.5744,196.5664,14.5744z M210.0205,5.6734c-1.313,0-2.084,0.453-2.854,1.654v-1.291h-2.876v10.485
	h2.876v-6.363c0-1.224,0.748-2.061,1.856-2.061c0.567,0,1.111,0.271,1.382,0.702c0.182,0.294,0.249,0.633,0.249,1.222v6.5h2.877
	v-6.635c0-1.722-0.25-2.559-0.928-3.24C211.9685,6.0364,211.0175,5.6734,210.0205,5.6734z M220.7324,8.2325
	c0.839,0,1.518,0.295,2.153,0.929l1.925-1.744c-1.336-1.2-2.627-1.744-4.19-1.744c-3.262,0-5.573,2.355-5.573,5.662
	c0,3.194,2.356,5.549,5.551,5.549c1.585,0,2.831-0.476,4.03-1.563l-1.743-1.8799c-0.7469,0.657-1.291,0.884-2.038,0.884
	c-1.677,0-2.877-1.291-2.877-3.08C217.9704,9.5235,219.1484,8.2325,220.7324,8.2325z M227.3237,1.4376
	c-0.929,0-1.6071,0.68-1.6071,1.6089c0,0.905,0.678,1.585,1.6071,1.585c0.907,0,1.586-0.68,1.586-1.563
	C228.9097,2.1176,228.2527,1.4376,227.3237,1.4376z M225.8747,16.5216h2.876V6.0356h-2.876V16.5216z M235.2282,10.1356
	c-1.449-0.453-1.472-0.453-1.789-0.703c-0.181-0.134-0.294-0.407-0.294-0.679c0-0.566,0.453-0.951,1.155-0.951
	c0.77,0,1.336,0.454,1.336,1.087v0.181h2.718c-0.069-2.129-1.518-3.396-3.919-3.396c-2.445,0-4.054,1.335-4.054,3.328
	c0,1.654,1.02,2.672,3.283,3.352c1.54,0.476,1.949,0.77,1.949,1.404c0,0.589-0.475,0.998-1.156,0.998
	c-0.838,0-1.244-0.409-1.382-1.315h-2.762c0.114,2.174,1.631,3.443,4.1219,3.443c2.447,0,4.077-1.359,4.077-3.398
	C238.5122,11.7886,237.5842,10.8606,235.2282,10.1356z"/>
<path style="fill:#00ADEE;" d="M181.3463,27.7231c1.267,0,2.309,0.453,3.533,1.562l2.0161-2.038c-1.789-1.744-3.374-2.4-5.707-2.4
	c-4.372,0-7.497,3.284-7.497,7.882c0,2.0829,0.747,4.1219,2.038,5.547c1.336,1.496,3.171,2.265,5.413,2.265
	c2.242,0,3.873-0.655,5.617-2.287l-1.88-2.129c-0.928,1.066-1.993,1.54-3.375,1.54c-2.717,0-4.665-2.105-4.665-5.005
	C176.8393,29.7621,178.6963,27.7231,181.3463,27.7231z M196.0229,31.098c-1.019-1.201-1.993-1.699-3.42-1.699
	c-3.059,0-5.277,2.424-5.277,5.73c0,3.194,2.106,5.481,5.051,5.481c1.54,0,2.672-0.567,3.646-1.812v1.449h2.876V29.761h-2.876
	V31.098z M193.1689,38.299c-1.562,0-2.763-1.382-2.763-3.216c0-1.925,1.155-3.26,2.786-3.26c1.699,0,2.877,1.313,2.877,3.169
	C196.0689,36.805,194.7769,38.299,193.1689,38.299z M207.0532,36.398c0,1.108-0.634,1.789-1.699,1.789
	c-1.042,0-1.744-0.792-1.744-1.971v-6.455h-2.877v6.637c0,1.382,0.363,2.378,1.111,3.056c0.815,0.748,2.061,1.156,3.51,1.156
	c1.381,0,2.559-0.385,3.397-1.087c0.861-0.725,1.178-1.585,1.178-3.125v-6.637h-2.876V36.398z M212.3305,29.1723v0.589h-1.155v2.423
	h1.155v8.063h2.876v-8.063h1.382v-2.423h-1.382v-0.589c0-0.883,0.385-1.268,1.382-1.382v-2.649
	C213.7115,25.0503,212.3305,26.3643,212.3305,29.1723z M218.5366,29.1723v0.589h-1.155v2.423h1.155v8.063h2.876v-8.063h1.382v-2.423
	h-1.382v-0.589c0-0.883,0.385-1.268,1.382-1.382v-2.649C219.9176,25.0503,218.5366,26.3643,218.5366,29.1723z M236.1339,29.399
	c-1.495,0-2.468,0.544-3.171,1.744c-0.498-1.133-1.494-1.744-2.852-1.744c-1.337,0-2.221,0.52-2.877,1.675v-1.313h-2.876v10.486
	h2.876v-6.228c0-1.449,0.566-2.196,1.652-2.196c1.043,0,1.586,0.747,1.586,2.196v6.228h2.876v-6.319
	c0-1.336,0.613-2.105,1.678-2.105c1.087,0,1.606,0.678,1.606,2.105v6.319h2.877v-6.862c0-1.586-0.204-2.311-0.837-3.013
	C238.0829,29.739,237.1989,29.399,236.1339,29.399z M249.7007,31.098c-1.019-1.201-1.992-1.699-3.42-1.699
	c-3.058,0-5.276,2.424-5.276,5.73c0,3.194,2.105,5.481,5.05,5.481c1.541,0,2.672-0.567,3.646-1.812v1.449h2.876V29.761h-2.876
	V31.098z M246.8477,38.299c-1.563,0-2.763-1.382-2.763-3.216c0-1.925,1.154-3.26,2.785-3.26c1.699,0,2.878,1.313,2.878,3.169
	C249.7477,36.805,248.4557,38.299,246.8477,38.299z M262.9511,30.372c-0.634-0.611-1.585-0.973-2.582-0.973
	c-1.313,0-2.084,0.454-2.854,1.653v-1.291h-2.876v10.486h2.876v-6.364c0-1.223,0.748-2.06,1.856-2.06
	c0.567,0,1.111,0.27,1.383,0.702c0.181,0.2939,0.248,0.633,0.248,1.222v6.5h2.8781v-6.635
	C263.8801,31.89,263.6301,31.052,262.9511,30.372z"/>
<path style="fill:#939597;" d="M178.1079,48.8664l-5.21,15.106h3.284l0.906-2.604h5.798l0.861,2.604h3.397l-5.164-15.106H178.1079z
	 M177.8809,58.8314l2.106-6.251l2.084,6.251H177.8809z M191.9461,53.6236c-0.431,0.316-0.635,0.634-0.929,1.403v-1.54h-2.876v10.486
	h2.876v-5.05c0-0.997,0.091-1.45,0.431-1.926c0.407-0.589,1.132-0.95,1.925-0.95c0.158,0,0.385,0.022,0.611,0.045v-2.945
	c-0.1591-0.022-0.2711-0.022-0.34-0.022C193.0101,53.1246,192.3991,53.3046,191.9461,53.6236z M200.2353,55.6827
	c0.838,0,1.518,0.295,2.152,0.93l1.925-1.744c-1.336-1.201-2.627-1.744-4.19-1.744c-3.262,0-5.571,2.354-5.571,5.662
	c0,3.193,2.3539,5.548,5.549,5.548c1.585,0,2.831-0.475,4.031-1.563l-1.744-1.88c-0.747,0.657-1.291,0.8849-2.038,0.8849
	c-1.676,0-2.877-1.291-2.877-3.08C197.4723,56.9737,198.6503,55.6827,200.2353,55.6827z M211.062,53.1244
	c-1.133,0-1.994,0.453-2.877,1.495v-5.753h-2.876v15.107h2.876v-6.251c0-0.816,0.136-1.223,0.589-1.655
	c0.34-0.34,0.793-0.52,1.291-0.52c0.951,0,1.563,0.748,1.563,1.925v6.501h2.876v-6.909c0-1.517-0.249-2.333-0.927-2.966
	C212.964,53.5094,211.967,53.1244,211.062,53.1244z M216.5202,63.9718h2.876v-10.485h-2.876V63.9718z M217.9692,48.8878
	c-0.928,0-1.607,0.681-1.607,1.609c0,0.9059,0.679,1.585,1.607,1.585c0.907,0,1.586-0.679,1.586-1.562
	C219.5552,49.5688,218.8982,48.8878,217.9692,48.8878z M224.8091,50.6328h-2.876v2.809h-1.201v2.423h1.201v6.115
	c-0.022,1.382,0.498,1.948,1.902,1.993h2.287v-2.4h-0.498c-0.633-0.046-0.815-0.182-0.815-0.68v-5.028h1.313v-2.423h-1.313V50.6328z
	 M232.5101,53.1242c-3.238,0-5.526,2.311-5.526,5.594c0,3.263,2.379,5.617,5.7079,5.617c2.218,0,4.053-1.155,5.095-3.193
	l-2.65-0.725c-0.453,0.838-1.358,1.359-2.423,1.359c-1.427,0-2.492-0.906-2.741-2.356h8.199l0.024-0.565
	C238.1961,55.4802,235.8631,53.1242,232.5101,53.1242z M229.9731,57.7682c0.272-1.428,1.201-2.221,2.582-2.221
	c1.428,0,2.424,0.838,2.673,2.221H229.9731z M244.8086,55.6827c0.839,0,1.518,0.295,2.152,0.93l1.925-1.744
	c-1.336-1.201-2.627-1.744-4.19-1.744c-3.262,0-5.572,2.354-5.572,5.662c0,3.193,2.356,5.548,5.55,5.548
	c1.585,0,2.831-0.475,4.031-1.563l-1.744-1.88c-0.747,0.657-1.291,0.8849-2.038,0.8849c-1.676,0-2.877-1.291-2.877-3.08
	C242.0456,56.9737,243.2236,55.6827,244.8086,55.6827z M253.4155,50.6328h-2.876v2.809h-1.201v2.423h1.201v6.115
	c-0.023,1.382,0.498,1.948,1.901,1.993h2.287v-2.4h-0.4969c-0.634-0.046-0.815-0.182-0.815-0.68v-5.028h1.312v-2.423h-1.312V50.6328
	z M260.572,57.5857c-1.449-0.453-1.473-0.453-1.789-0.703c-0.182-0.134-0.294-0.406-0.294-0.678c0-0.567,0.453-0.952,1.154-0.952
	c0.771,0,1.337,0.454,1.337,1.087v0.182h2.718c-0.069-2.129-1.519-3.397-3.919-3.397c-2.445,0-4.055,1.335-4.055,3.329
	c0,1.6541,1.021,2.672,3.284,3.351c1.54,0.477,1.949,0.771,1.949,1.405c0,0.588-0.475,0.997-1.156,0.997
	c-0.838,0-1.245-0.409-1.381-1.314h-2.762c0.112,2.174,1.63,3.442,4.121,3.442c2.446,0,4.077-1.358,4.077-3.397
	C263.856,59.2397,262.927,58.3117,260.572,57.5857z"/>
</svg>
