<svg xmlns="http://www.w3.org/2000/svg" width="175" height="175" viewBox="0 0 175 175">
    <path fill="#000" fill-rule="evenodd" d="M105.174 4l-.697.286-26.818 26.74v.572l-.288 29.72 11.062 26.81-59.495-24.57-1.276.526L3 123.446l.4.605 46.225 46.736.688.282h75.577l.697-.282L173 124.511l-.01-1.39-38.134-37.087 6.63-6.61 15.979 15.93 1.671-.69V61.826l5.293-5.277.283-.686V34.265l-.283-.69-29.38-29.289-.692-.286h-29.183zm3.546 56.62L79.73 31.715l25.845-25.767h28.377l28.806 28.72v20.79l-5.289 5.273h-.004l-16.67 16.621-7.342 7.32-24.733-24.054zM90.986 89.18l-11.66-28.058V34.068l28.02 27.941 20.616 20.053 4.817 4.681 35.206 34.238-77-31.8zm51.885-11.137l14.311-14.269v28.538l-14.311-14.269zM29.093 65.733l138.294 57.112H5.369l23.724-57.113zm-22.83 59.06h163.68L125.49 169.12H50.722L6.263 124.793z"/>
</svg>
